<svg width="220" height="200" viewBox="0 0 220 200" xmlns="http://www.w3.org/2000/svg">
  <rect x="0" y="0" width="220" height="200" rx="20" fill="none" stroke="white" stroke-width="1.5" stroke-opacity="0.4"/>

  <!-- Running shoe silhouette -->
  <g transform="translate(30, 22)">
    <path d="M10 62 Q8 68 20 72 L130 72 Q148 72 152 64 Q156 56 145 52 L120 48 L100 50 L60 46 Q40 44 28 52 Z" fill="white" opacity="0.9"/>
    <path d="M28 52 Q32 28 55 22 Q75 16 95 20 L115 26 Q130 30 138 42 L145 52 L100 50 L60 46 Z" fill="white" opacity="0.18" stroke="white" stroke-width="1" stroke-opacity="0.4"/>
    <line x1="62" y1="30" x2="95" y2="28" stroke="white" stroke-width="1.5" stroke-linecap="round" stroke-opacity="0.6"/>
    <line x1="68" y1="38" x2="100" y2="35" stroke="white" stroke-width="1.5" stroke-linecap="round" stroke-opacity="0.6"/>
    <line x1="74" y1="46" x2="106" y2="43" stroke="white" stroke-width="1.5" stroke-linecap="round" stroke-opacity="0.6"/>
    <rect x="18" y="38" width="14" height="22" rx="4" fill="white" fill-opacity="0.12" stroke="white" stroke-width="1" stroke-opacity="0.3"/>
  </g>

  <text x="110" y="148" text-anchor="middle" font-family="system-ui, sans-serif" font-size="48" fill="white" font-weight="700">25+</text>
  <text x="110" y="170" text-anchor="middle" font-family="system-ui, sans-serif" font-size="14" fill="white" fill-opacity="0.75" font-weight="400">שנות ניסיון</text>
  <text x="110" y="187" text-anchor="middle" font-family="system-ui, sans-serif" font-size="12" fill="white" fill-opacity="0.5" font-weight="400">בעולם הריצה</text>
</svg>
